<svg xmlns="http://www.w3.org/2000/svg" viewBox="0 0 416.05 151.85"><defs><style>.cls-1{fill:#f0592c;}.cls-2{fill:#fde611;}</style></defs><title>chq-d</title><g id="Layer_2" data-name="Layer 2"><g id="Layer_1-2" data-name="Layer 1"><path d="M75.87,99.16A26.55,26.55,0,0,1,70,107.08a62,62,0,0,1-9.1,7.2,70.7,70.7,0,0,1-16.29,7.77,57.56,57.56,0,0,1-18,2.79c-2.34,0-5-.07-8.07-.22a33.23,33.23,0,0,1-8.66-1.54,17.92,17.92,0,0,1-7-4Q0,116.34,0,111.19a23.23,23.23,0,0,1,.29-3.37,35.28,35.28,0,0,1,1.1-4.55q.81-2.64,2.28-6.46t4-9.39l21-46.82a56.69,56.69,0,0,1,7.19-12,35.12,35.12,0,0,1,9-8,37.39,37.39,0,0,1,11.3-4.47,64.42,64.42,0,0,1,14-1.4q11.14,0,16.29,2.06a7.48,7.48,0,0,1,5.14,7.48A17.58,17.58,0,0,1,91,28.86L66.19,38a22,22,0,0,0,1.47-2.42,24.31,24.31,0,0,0,1.24-2.79c.34-.93.64-1.81.88-2.64a7.27,7.27,0,0,0,.37-2q0-2.2-4.7-2.2a8.8,8.8,0,0,0-4.69,1.17c-1.27.79-2.5,2.5-3.67,5.14L28,97.4q-3.37,7.48-4.55,10.64a17.42,17.42,0,0,0-1.17,3.89q0,2.49,5.28,2.49a57.92,57.92,0,0,0,13.58-1.68,67.59,67.59,0,0,0,13-4.55,51.33,51.33,0,0,0,10.64-6.68,22.69,22.69,0,0,0,6.53-8.07Z"/><path d="M149.11,99.16a25.86,25.86,0,0,1-6.61,8.73,68.59,68.59,0,0,1-11.15,8.29,71.07,71.07,0,0,1-13.14,6.24,38,38,0,0,1-12.69,2.42c-4,0-6.78-1-8.29-3.08a11.3,11.3,0,0,1-2.28-6.9,18.92,18.92,0,0,1,.3-3.3A14.26,14.26,0,0,1,96.42,108q3.38-7.93,6.82-14.68a142.62,142.62,0,0,0,6.39-14.53c.49-1.27.78-2.1.88-2.49a4.74,4.74,0,0,0,.14-1c0-1.27-.73-1.91-2.2-1.91A5.56,5.56,0,0,0,103,77L82,124.4H57.68L106.4,15.21h24.36l-22.6,50.2a28.33,28.33,0,0,1,6.31-2.72,21.45,21.45,0,0,1,5.72-.81c4.41,0,7.56.84,9.47,2.5s2.86,4.06,2.86,7.19a24.66,24.66,0,0,1-.66,5.72,57,57,0,0,1-2,6.39c-.88,2.4-2,5.13-3.3,8.22s-2.91,6.72-4.77,10.93c-.29.88-.57,1.66-.81,2.35a5.29,5.29,0,0,0-.37,1.61c0,1.47.89,2.2,2.65,2.2a12.5,12.5,0,0,0,5.28-1.61,47.41,47.41,0,0,0,6.46-4,46,46,0,0,0,5.87-5.07,19.22,19.22,0,0,0,3.67-4.91Z"/><path d="M212.36,99.16a28.44,28.44,0,0,1-6.83,8.81,65.16,65.16,0,0,1-11.3,8.29,75,75,0,0,1-13.35,6.16A39.25,39.25,0,0,1,168,124.84q-5.29,0-7.93-2.64a9.91,9.91,0,0,1-2.64-7.34,16.64,16.64,0,0,1,.81-4.62,56.35,56.35,0,0,1,2.05-5.72c.83-2,1.76-4.06,2.79-6.17s2-4.08,3-5.94a74.23,74.23,0,0,0,4-8.15,12.34,12.34,0,0,0,.88-3.15c0-.68-.93-1.42-2.79-2.2l-3.08-1.32a59.21,59.21,0,0,1-11.45,18.93q-4.26,4.85-7.55,8.07a55.08,55.08,0,0,1-5.95,5.14,21,21,0,0,1-4.77,2.71,11,11,0,0,1-3.89.81l-2.05-5.14a15,15,0,0,0,3.08-3.67,166,166,0,0,0,10.79-22.6Q147.93,70,152,58.07l35.81,20.25A9.37,9.37,0,0,1,191,81.11a5.15,5.15,0,0,1,1,2.79,11.83,11.83,0,0,1-1.32,4.62c-.88,1.91-1.89,4-3,6.16s-2.13,4.41-3,6.61a15.69,15.69,0,0,0-1.32,5.65c0,1.37.78,2,2.35,2a14,14,0,0,0,5.79-1.54,42.19,42.19,0,0,0,6.61-3.89A42.75,42.75,0,0,0,204,98.5a21.42,21.42,0,0,0,3.82-5.06Z"/><path d="M254.48,99.16a28.44,28.44,0,0,1-6.83,8.81,65.16,65.16,0,0,1-11.3,8.29A75,75,0,0,1,223,122.42a39.26,39.26,0,0,1-12.85,2.42,11.39,11.39,0,0,1-7.7-2.57,8.67,8.67,0,0,1-3-7,16.41,16.41,0,0,1,1.91-7.33l21.87-49,18.49,10.12-15.56,35.08a7.65,7.65,0,0,0-.73,2.64c0,1.47.83,2.2,2.49,2.2a14,14,0,0,0,5.87-1.61,43.29,43.29,0,0,0,6.61-4,46,46,0,0,0,5.87-5.07,19.22,19.22,0,0,0,3.67-4.91Zm2.34-61A7.86,7.86,0,0,1,255,43.17,15.86,15.86,0,0,1,250.44,47a26.14,26.14,0,0,1-5.94,2.42,22.88,22.88,0,0,1-6,.88,13.67,13.67,0,0,1-6.83-1.69,5.13,5.13,0,0,1-3-4.62,7.88,7.88,0,0,1,1.61-4.62,16,16,0,0,1,4.26-4,23.37,23.37,0,0,1,5.87-2.79,21.77,21.77,0,0,1,6.6-1,13.24,13.24,0,0,1,6.83,1.77A5.38,5.38,0,0,1,256.82,38.11Z"/><path d="M319.19,99.16a39.36,39.36,0,0,1-8.65,10.42,61.68,61.68,0,0,1-12.11,8.14A64,64,0,0,1,284.27,123a62.31,62.31,0,0,1-14.83,1.83,24.3,24.3,0,0,1-8.14-1.32,19.72,19.72,0,0,1-6.46-3.67,18,18,0,0,1-4.26-5.28,13.47,13.47,0,0,1-1.54-6.31v-1.62a14.26,14.26,0,0,1-3.08,2.5c-1.37.88-2.49,1.61-3.37,2.2a14.76,14.76,0,0,1-.74-3.81q0-2.79,2.72-6.32a91.33,91.33,0,0,0,5.35-7.77c1.67-2.65,3.23-4.92,4.7-6.83s3-3.69,4.48-5.35a67.08,67.08,0,0,1,4.77-4.77q2.49-2.28,5.43-4.92c-.1-.68-.18-1.25-.22-1.69a18.81,18.81,0,0,1-.08-2,27.43,27.43,0,0,1,1.4-8.73,22.9,22.9,0,0,1,3.89-7.27A19.1,19.1,0,0,1,280.23,47a15.89,15.89,0,0,1,7.56-1.84A11.11,11.11,0,0,1,294,46.69q2.35,1.55,2.35,5.8a17.15,17.15,0,0,1-.29,2.94,12,12,0,0,1-1.4,3.59,30.84,30.84,0,0,1-3.15,4.48A56,56,0,0,1,286,69.07q11.88,15,11.88,23.19a22.92,22.92,0,0,1-3.59,12.92q-3.6,5.43-11.38,8.36a42,42,0,0,0,8.3-2.27,59.94,59.94,0,0,0,8.88-4.26,49,49,0,0,0,8.21-6,33.39,33.39,0,0,0,6.31-7.55ZM272.82,82a53.14,53.14,0,0,0-5.21,4.18,30.74,30.74,0,0,0-5.36,6.53,25.21,25.21,0,0,0-3.3,6.75,21,21,0,0,0-.81,5.58,4.59,4.59,0,0,0,1.25,3.6c.83.73,2.28,1.1,4.33,1.1a9,9,0,0,0,4.7-1.32,13.12,13.12,0,0,0,3.74-3.38,16.66,16.66,0,0,0,2.42-4.62,15.47,15.47,0,0,0,.88-5.07,38.79,38.79,0,0,0-.73-7.77A19.49,19.49,0,0,0,272.82,82Zm9.24-20.55q3.09-2.05,3.82-3.52a6,6,0,0,0,.73-2.64q0-1.47-1.32-1.47-3.53,0-3.52,4.4c0,.3,0,.81.07,1.55A11.19,11.19,0,0,0,282.06,61.44Z"/><path d="M416.05,99.16a164.43,164.43,0,0,1-9.46,14.6,79.26,79.26,0,0,1-11,12.33,51,51,0,0,1-13.06,8.59,37.83,37.83,0,0,1-15.78,3.22c-2.25,0-4.43-.09-6.53-.29s-4.43-.49-7-.88a38.4,38.4,0,0,1-17.9,12.84,37.73,37.73,0,0,1-8.81,1.91c-2.84.24-5.38.37-7.63.37a33.35,33.35,0,0,1-5.43-.44,12.54,12.54,0,0,1-4.62-1.69,9.1,9.1,0,0,1-3.16-3.38,11.72,11.72,0,0,1-1.17-5.65,22.79,22.79,0,0,1,1.46-8.14,18.32,18.32,0,0,1,4.63-6.9,22.37,22.37,0,0,1,8.14-4.77,35.94,35.94,0,0,1,11.89-1.76c1.37,0,2.81,0,4.33.15a37.35,37.35,0,0,1,4,.44q5-8.52,9.62-17.25t9.17-18q4.54-9.31,9.1-19.52T376.43,43a37.53,37.53,0,0,0,2.49-6.9,23.3,23.3,0,0,0,.74-5.28q0-6.75-7.2-6.75a10.73,10.73,0,0,0-2.93.37A6,6,0,0,0,367,25.85a14,14,0,0,0-2.35,3.09,52.44,52.44,0,0,0-2.64,5.21L342.23,78.76a80.4,80.4,0,0,0-4.84,13.43,40.77,40.77,0,0,0-1.32,9.17,13.11,13.11,0,0,0,.44,3.67,18.33,18.33,0,0,0,.88,2.42,17.43,17.43,0,0,0,.88,1.69,3.12,3.12,0,0,1,.44,1.61,5.46,5.46,0,0,1-1.32,3.53,4.66,4.66,0,0,1-3.82,1.61,8.43,8.43,0,0,1-1.61-.29q-9.39-2.64-13.43-8.3a22.72,22.72,0,0,1-4-13.57q0-9.69,5.28-21.57l15.85-36.11a46.14,46.14,0,0,1,5.72-9.68A27.89,27.89,0,0,1,349,19.62a34.76,34.76,0,0,1,10.13-4,59.31,59.31,0,0,1,13.35-1.33,104.13,104.13,0,0,1,12.19.66,32.56,32.56,0,0,1,9.61,2.5,14.7,14.7,0,0,1,6.24,5.06,14.38,14.38,0,0,1,2.2,8.22q0,6.17-3.38,14.82Q393.74,60,389,71.13t-9.25,20.4q-4.49,9.24-8.81,17.1t-8.87,15.77a25.15,25.15,0,0,0,5.72.59,30.66,30.66,0,0,0,12.77-2.79,51.32,51.32,0,0,0,11.66-7.34,87.35,87.35,0,0,0,10.35-10.12,133.53,133.53,0,0,0,8.81-11.3Zm-83.5,30.53c-.79-.1-1.47-.18-2.06-.22s-1.27-.08-2.05-.08a18.64,18.64,0,0,0-4.92.66,14,14,0,0,0-4.33,2,10.06,10.06,0,0,0-3,3.23,8.69,8.69,0,0,0-1.1,4.41q0,2.64,3.53,2.64,2.64,0,6.16-3.23A57.06,57.06,0,0,0,332.55,129.69Z"/><path class="cls-1" d="M220.06,37.54a21.83,21.83,0,0,1,4.47-7.22c5-4.41,7.06-3.35,23.28-10.53s8.85-17.11,3.87-18.74.28-1.25,4.71.34,9.92,2,16.17,10.19.55,12.1-7.63,15.7-7.44,8-7.26,9.09,3.68,4.46,3.71,8c0,3.75-2.9,12.47-15.57,12.22S217.37,49.58,220.06,37.54Z"/><path class="cls-2" d="M250,27.68s-3.16-1.14-11.23,5.92S231,43.51,233,46.45c1.45,2.21,6.62,4.92,9.26,5.08a14.93,14.93,0,0,0,7.46-2.3A4,4,0,0,0,250,43c-2.48-2.39-2-8.57-1.41-10.22s2.08-4.14,1.48-5.14"/></g></g></svg>